<svg width="424" height="355" viewBox="0 0 424 355" fill="none" xmlns="http://www.w3.org/2000/svg">
<mask id="mask0_162_72" style="mask-type:luminance" maskUnits="userSpaceOnUse" x="13" y="-266" width="39" height="621">
<path d="M13.504 -265.086H51.504V354.324H13.504V-265.086Z" fill="white"/>
</mask>
<g mask="url(#mask0_162_72)">
<path d="M32.609 -264.812C22.524 -264.812 14.348 -256.637 14.348 -246.551V335.957C14.348 346.043 22.524 354.219 32.609 354.219C42.695 354.219 50.867 346.043 50.867 335.957V-246.551C50.867 -256.637 42.695 -264.812 32.609 -264.812Z" fill="white" fill-opacity="0.05"/>
</g>
<path d="M94.695 -183.137C84.609 -183.137 76.434 -174.961 76.434 -164.875V254.277C76.434 264.367 84.609 272.543 94.695 272.543C104.781 272.543 112.957 264.367 112.957 254.277V-164.875C112.957 -174.961 104.781 -183.137 94.695 -183.137Z" fill="white" fill-opacity="0.05"/>
<path d="M156.781 -45.7348C146.695 -45.7348 138.52 -37.5588 138.52 -27.4728V116.875C138.52 126.965 146.695 135.14 156.781 135.14C166.867 135.14 175.043 126.965 175.043 116.875V-27.4728C175.043 -37.5588 166.867 -45.7348 156.781 -45.7348Z" fill="white" fill-opacity="0.05"/>
<path d="M218.871 -205.59C208.785 -205.59 200.609 -197.414 200.609 -187.328V276.73C200.609 286.82 208.785 294.992 218.871 294.992C228.957 294.992 237.129 286.82 237.129 276.73V-187.328C237.129 -197.414 228.957 -205.59 218.871 -205.59Z" fill="white" fill-opacity="0.05"/>
<path d="M280.957 -134.11C270.871 -134.11 262.695 -125.934 262.695 -115.848V205.25C262.695 215.336 270.871 223.512 280.957 223.512C291.043 223.512 299.215 215.336 299.215 205.25V-115.844C299.215 -125.934 291.043 -134.11 280.957 -134.11Z" fill="white" fill-opacity="0.05"/>
<path d="M343.043 -25.9138C332.957 -25.9138 324.781 -17.7378 324.781 -7.6528V97.0542C324.781 107.14 332.957 115.316 343.043 115.316C353.129 115.316 361.305 107.14 361.305 97.0542V-7.6528C361.305 -17.7348 353.129 -25.9138 343.043 -25.9138Z" fill="white" fill-opacity="0.05"/>
<mask id="mask1_162_72" style="mask-type:luminance" maskUnits="userSpaceOnUse" x="386" y="6" width="38" height="78">
<path d="M386.504 6.32419H423.394V83.3242H386.504V6.32419Z" fill="white"/>
</mask>
<g mask="url(#mask1_162_72)">
<path d="M405.134 6.89819C395.044 6.89819 386.874 15.0702 386.874 25.1602V64.2462C386.874 74.3322 395.044 82.5082 405.134 82.5082C415.214 82.5082 423.394 74.3322 423.394 64.2462V25.1602C423.394 15.0742 415.214 6.89819 405.134 6.89819Z" fill="white" fill-opacity="0.05"/>
</g>
</svg>
