<svg width="534" height="372" viewBox="0 0 534 372" fill="none" xmlns="http://www.w3.org/2000/svg">
<path d="M18.258 23.7107C8.172 23.7107 0 31.8827 0 41.9727V81.0587C0 91.1447 8.172 99.3207 18.258 99.3207C28.344 99.3207 36.52 91.1447 36.52 81.0587V41.9727C36.52 31.8867 28.344 23.7107 18.258 23.7107Z" fill="#EFF2F3" fill-opacity="0.5"/>
<path d="M80.3479 -28.3123C70.2619 -28.3123 62.0859 -20.1362 62.0859 -10.0512V133.078C62.0859 143.164 70.2619 151.34 80.3479 151.34C90.4339 151.34 98.6059 143.168 98.6059 133.078V-10.0472C98.6059 -20.1332 90.4339 -28.3123 80.3479 -28.3123Z" fill="#EFF2F3" fill-opacity="0.5"/>
<path d="M142.434 -121.656C132.348 -121.656 124.172 -113.484 124.172 -103.394V226.426C124.172 236.516 132.348 244.688 142.434 244.688C152.52 244.688 160.695 236.516 160.695 226.426V-103.394C160.695 -113.484 152.52 -121.656 142.434 -121.656Z" fill="#EFF2F3" fill-opacity="0.5"/>
<path d="M204.52 -42.9023C194.434 -42.9023 186.258 -34.7264 186.258 -24.6364V147.668C186.258 157.754 194.434 165.93 204.52 165.93C214.606 165.93 222.781 157.754 222.781 147.668V-24.6364C222.781 -34.7224 214.606 -42.9023 204.52 -42.9023Z" fill="#EFF2F3" fill-opacity="0.5"/>
<path d="M266.609 -248C256.524 -248 248.348 -239.824 248.348 -229.738V352.77C248.348 362.856 256.524 371.032 266.609 371.032C276.695 371.032 284.867 362.856 284.867 352.77V-229.738C284.867 -239.824 276.695 -248 266.609 -248Z" fill="#EFF2F3" fill-opacity="0.5"/>
<path d="M328.695 -166.324C318.609 -166.324 310.434 -158.148 310.434 -148.062V271.09C310.434 281.18 318.609 289.356 328.695 289.356C338.781 289.356 346.957 281.18 346.957 271.09V-148.062C346.957 -158.148 338.781 -166.324 328.695 -166.324Z" fill="#EFF2F3" fill-opacity="0.5"/>
<path d="M390.781 -28.9224C380.695 -28.9224 372.52 -20.7464 372.52 -10.6604V133.688C372.52 143.778 380.695 151.953 390.781 151.953C400.867 151.953 409.043 143.778 409.043 133.688V-10.6604C409.043 -20.7464 400.867 -28.9224 390.781 -28.9224Z" fill="#EFF2F3" fill-opacity="0.5"/>
<path d="M452.871 -188.777C442.785 -188.777 434.609 -180.601 434.609 -170.515V293.543C434.609 303.633 442.785 311.805 452.871 311.805C462.957 311.805 471.129 303.633 471.129 293.543V-170.515C471.129 -180.601 462.957 -188.777 452.871 -188.777Z" fill="#EFF2F3" fill-opacity="0.5"/>
<path d="M514.957 -117.297C504.871 -117.297 496.695 -109.121 496.695 -99.0354V222.063C496.695 232.149 504.871 240.325 514.957 240.325C525.043 240.325 533.215 232.149 533.215 222.063V-99.0314C533.215 -109.121 525.043 -117.297 514.957 -117.297Z" fill="#EFF2F3" fill-opacity="0.5"/>
</svg>
