<svg width="501" height="48" viewBox="0 0 501 48" fill="none" xmlns="http://www.w3.org/2000/svg">
<rect width="40" height="500" transform="translate(500 3.00005) rotate(90)" fill="white" fill-opacity="0.25"/>
<rect width="40" height="280" transform="translate(280 3) rotate(90)" fill="#58C8B2"/>
<path d="M256.849 21.8887C257.528 21.8887 258.118 22.0049 258.619 22.2373C259.12 22.4652 259.508 22.7979 259.781 23.2354C260.059 23.6729 260.198 24.2038 260.198 24.8281C260.198 25.5117 260.05 26.1019 259.754 26.5986C259.458 27.0908 259.032 27.4714 258.476 27.7402C257.92 28.0046 257.254 28.1367 256.479 28.1367C255.96 28.1367 255.477 28.0911 255.03 28C254.584 27.9089 254.208 27.7721 253.902 27.5898V26.5098C254.235 26.7103 254.638 26.8698 255.112 26.9883C255.586 27.1068 256.047 27.166 256.493 27.166C256.999 27.166 257.441 27.0863 257.819 26.9268C258.202 26.7627 258.498 26.5166 258.708 26.1885C258.922 25.8558 259.029 25.4388 259.029 24.9375C259.029 24.2721 258.824 23.7594 258.414 23.3994C258.008 23.0348 257.366 22.8525 256.486 22.8525C256.204 22.8525 255.894 22.8753 255.557 22.9209C255.219 22.9665 254.941 23.0166 254.723 23.0713L254.148 22.6953L254.531 18.0059H259.501V19.0449H255.502L255.249 22.0596C255.422 22.0231 255.646 21.9867 255.919 21.9502C256.192 21.9092 256.502 21.8887 256.849 21.8887ZM261.805 23.7275C261.805 23.126 261.846 22.5381 261.928 21.9639C262.014 21.3896 262.158 20.8564 262.358 20.3643C262.559 19.8675 262.832 19.4323 263.179 19.0586C263.525 18.6849 263.956 18.3932 264.471 18.1836C264.99 17.9694 265.612 17.8623 266.337 17.8623C266.542 17.8623 266.763 17.8737 267 17.8965C267.237 17.9147 267.433 17.9466 267.588 17.9922V18.9697C267.419 18.9105 267.226 18.8672 267.007 18.8398C266.793 18.8125 266.576 18.7988 266.357 18.7988C265.51 18.7988 264.842 18.9834 264.354 19.3525C263.871 19.7217 263.523 20.223 263.309 20.8564C263.094 21.4854 262.971 22.194 262.939 22.9824H263.015C263.156 22.7546 263.336 22.5495 263.555 22.3672C263.773 22.1803 264.038 22.0322 264.348 21.9229C264.662 21.8135 265.027 21.7588 265.441 21.7588C266.025 21.7588 266.533 21.8773 266.966 22.1143C267.403 22.3512 267.741 22.6953 267.978 23.1465C268.219 23.5977 268.34 24.1445 268.34 24.7871C268.34 25.4753 268.212 26.07 267.957 26.5713C267.702 27.0726 267.337 27.46 266.863 27.7334C266.394 28.0023 265.833 28.1367 265.182 28.1367C264.694 28.1367 264.245 28.0433 263.835 27.8564C263.425 27.6696 263.067 27.3916 262.762 27.0225C262.461 26.6533 262.226 26.1953 262.058 25.6484C261.889 25.097 261.805 24.4567 261.805 23.7275ZM265.168 27.1797C265.788 27.1797 266.285 26.9814 266.658 26.585C267.032 26.1885 267.219 25.5892 267.219 24.7871C267.219 24.1309 267.052 23.6113 266.72 23.2285C266.387 22.8457 265.886 22.6543 265.216 22.6543C264.76 22.6543 264.364 22.75 264.026 22.9414C263.689 23.1283 263.427 23.3652 263.24 23.6523C263.053 23.9395 262.96 24.2311 262.96 24.5273C262.96 24.8281 263.003 25.1335 263.09 25.4434C263.181 25.7533 263.318 26.0404 263.5 26.3047C263.682 26.569 263.912 26.7809 264.19 26.9404C264.468 27.0999 264.794 27.1797 265.168 27.1797Z" fill="white"/>
<mask id="path-2-inside-1_137_1889" fill="white">
<path d="M500 0H501V48H500V0Z"/>
</mask>
<path d="M501.5 48V47H500.5V48H501.5ZM501.5 45V43H500.5V45H501.5ZM501.5 41V39H500.5V41H501.5ZM501.5 37V35H500.5V37H501.5ZM501.5 33V31H500.5V33H501.5ZM501.5 29V27H500.5V29H501.5ZM501.5 25V23H500.5V25H501.5ZM501.5 21V19H500.5V21H501.5ZM501.5 17V15H500.5V17H501.5ZM501.5 13V11H500.5V13H501.5ZM501.5 9V7H500.5V9H501.5ZM501.5 5V3H500.5V5H501.5ZM501.5 0.999999V0H500.5V0.999999H501.5ZM502 48V47H500V48H502ZM502 45V43H500V45H502ZM502 41V39H500V41H502ZM502 37V35H500V37H502ZM502 33V31H500V33H502ZM502 29V27H500V29H502ZM502 25V23H500V25H502ZM502 21V19H500V21H502ZM502 17V15H500V17H502ZM502 13V11H500V13H502ZM502 9V7H500V9H502ZM502 5V3H500V5H502ZM502 0.999999V0H500V0.999999H502Z" fill="white" fill-opacity="0.5" mask="url(#path-2-inside-1_137_1889)"/>
<mask id="path-4-inside-2_137_1889" fill="white">
<path d="M0 0H1V48H0V0Z"/>
</mask>
<path d="M1.5 48V47H0.5V48H1.5ZM1.5 45V43H0.5V45H1.5ZM1.5 41V39H0.5V41H1.5ZM1.5 37V35H0.5V37H1.5ZM1.5 33V31H0.5V33H1.5ZM1.5 29V27H0.5V29H1.5ZM1.5 25V23H0.5V25H1.5ZM1.5 21V19H0.5V21H1.5ZM1.5 17V15H0.5V17H1.5ZM1.5 13V11H0.5V13H1.5ZM1.5 9V7H0.5V9H1.5ZM1.5 5V3H0.5V5H1.5ZM1.5 0.999999V0H0.5V0.999999H1.5ZM2 48V47H0V48H2ZM2 45V43H0V45H2ZM2 41V39H0V41H2ZM2 37V35H0V37H2ZM2 33V31H0V33H2ZM2 29V27H0V29H2ZM2 25V23H0V25H2ZM2 21V19H0V21H2ZM2 17V15H0V17H2ZM2 13V11H0V13H2ZM2 9V7H0V9H2ZM2 5V3H0V5H2ZM2 0.999999V0H0V0.999999H2Z" fill="white" fill-opacity="0.5" mask="url(#path-4-inside-2_137_1889)"/>
<mask id="path-6-inside-3_137_1889" fill="white">
<path d="M125 0H126V48H125V0Z"/>
</mask>
<path d="M126.5 48V47H125.5V48H126.5ZM126.5 45V43H125.5V45H126.5ZM126.5 41V39H125.5V41H126.5ZM126.5 37V35H125.5V37H126.5ZM126.5 33V31H125.5V33H126.5ZM126.5 29V27H125.5V29H126.5ZM126.5 25V23H125.5V25H126.5ZM126.5 21V19H125.5V21H126.5ZM126.5 17V15H125.5V17H126.5ZM126.5 13V11H125.5V13H126.5ZM126.5 9V7H125.5V9H126.5ZM126.5 5V3H125.5V5H126.5ZM126.5 0.999999V0H125.5V0.999999H126.5ZM127 48V47H125V48H127ZM127 45V43H125V45H127ZM127 41V39H125V41H127ZM127 37V35H125V37H127ZM127 33V31H125V33H127ZM127 29V27H125V29H127ZM127 25V23H125V25H127ZM127 21V19H125V21H127ZM127 17V15H125V17H127ZM127 13V11H125V13H127ZM127 9V7H125V9H127ZM127 5V3H125V5H127ZM127 0.999999V0H125V0.999999H127Z" fill="white" fill-opacity="0.5" mask="url(#path-6-inside-3_137_1889)"/>
<mask id="path-8-inside-4_137_1889" fill="white">
<path d="M250 0H251V48H250V0Z"/>
</mask>
<path d="M251.5 48V47H250.5V48H251.5ZM251.5 45V43H250.5V45H251.5ZM251.5 41V39H250.5V41H251.5ZM251.5 37V35H250.5V37H251.5ZM251.5 33V31H250.5V33H251.5ZM251.5 29V27H250.5V29H251.5ZM251.5 25V23H250.5V25H251.5ZM251.5 21V19H250.5V21H251.5ZM251.5 17V15H250.5V17H251.5ZM251.5 13V11H250.5V13H251.5ZM251.5 9V7H250.5V9H251.5ZM251.5 5V3H250.5V5H251.5ZM251.5 0.999999V0H250.5V0.999999H251.5ZM252 48V47H250V48H252ZM252 45V43H250V45H252ZM252 41V39H250V41H252ZM252 37V35H250V37H252ZM252 33V31H250V33H252ZM252 29V27H250V29H252ZM252 25V23H250V25H252ZM252 21V19H250V21H252ZM252 17V15H250V17H252ZM252 13V11H250V13H252ZM252 9V7H250V9H252ZM252 5V3H250V5H252ZM252 0.999999V0H250V0.999999H252Z" fill="white" fill-opacity="0.5" mask="url(#path-8-inside-4_137_1889)"/>
<mask id="path-10-inside-5_137_1889" fill="white">
<path d="M375 0H376V48H375V0Z"/>
</mask>
<path d="M376.5 48V47H375.5V48H376.5ZM376.5 45V43H375.5V45H376.5ZM376.5 41V39H375.5V41H376.5ZM376.5 37V35H375.5V37H376.5ZM376.5 33V31H375.5V33H376.5ZM376.5 29V27H375.5V29H376.5ZM376.5 25V23H375.5V25H376.5ZM376.5 21V19H375.5V21H376.5ZM376.5 17V15H375.5V17H376.5ZM376.5 13V11H375.5V13H376.5ZM376.5 9V7H375.5V9H376.5ZM376.5 5V3H375.5V5H376.5ZM376.5 0.999999V0H375.5V0.999999H376.5ZM377 48V47H375V48H377ZM377 45V43H375V45H377ZM377 41V39H375V41H377ZM377 37V35H375V37H377ZM377 33V31H375V33H377ZM377 29V27H375V29H377ZM377 25V23H375V25H377ZM377 21V19H375V21H377ZM377 17V15H375V17H377ZM377 13V11H375V13H377ZM377 9V7H375V9H377ZM377 5V3H375V5H377ZM377 0.999999V0H375V0.999999H377Z" fill="white" fill-opacity="0.5" mask="url(#path-10-inside-5_137_1889)"/>
</svg>
