<svg width="501" height="48" viewBox="0 0 501 48" fill="none" xmlns="http://www.w3.org/2000/svg">
<rect width="40" height="500" transform="translate(500 3.00002) rotate(90)" fill="white" fill-opacity="0.25"/>
<rect width="40" height="111" transform="translate(111 3) rotate(90)" fill="#58C8B2"/>
<path d="M90.915 30H89.8076V22.918C89.8076 22.6491 89.8076 22.4189 89.8076 22.2275C89.8122 22.0316 89.8167 21.8538 89.8213 21.6943C89.8304 21.5303 89.8418 21.3639 89.8555 21.1953C89.7142 21.3411 89.582 21.4665 89.459 21.5713C89.3359 21.6716 89.1833 21.7969 89.001 21.9473L87.8594 22.8633L87.2646 22.0908L89.9717 20.0059H90.915V30ZM98.0039 19.8623C98.5827 19.8623 99.0954 19.9535 99.542 20.1357C99.9886 20.318 100.337 20.5869 100.588 20.9424C100.843 21.2933 100.971 21.7262 100.971 22.2412C100.971 22.6468 100.882 23.0023 100.704 23.3076C100.531 23.6084 100.296 23.8727 100 24.1006C99.7038 24.3239 99.3757 24.5244 99.0156 24.7022C99.444 24.8981 99.8291 25.1191 100.171 25.3652C100.517 25.6113 100.791 25.9007 100.991 26.2334C101.192 26.5661 101.292 26.9603 101.292 27.416C101.292 27.9766 101.155 28.4619 100.882 28.8721C100.613 29.2777 100.235 29.5898 99.7471 29.8086C99.2594 30.0273 98.6875 30.1367 98.0312 30.1367C97.3249 30.1367 96.7233 30.0319 96.2266 29.8223C95.7344 29.6081 95.3584 29.3027 95.0986 28.9063C94.8434 28.5052 94.7158 28.0244 94.7158 27.4639C94.7158 27.0036 94.8138 26.6048 95.0098 26.2676C95.2057 25.9258 95.4655 25.6318 95.7891 25.3857C96.1126 25.1397 96.4658 24.9323 96.8486 24.7637C96.516 24.5814 96.2106 24.374 95.9326 24.1416C95.6592 23.9092 95.4404 23.638 95.2764 23.3281C95.1169 23.0137 95.0371 22.6491 95.0371 22.2344C95.0371 21.7285 95.1647 21.3001 95.4199 20.9492C95.6797 20.5938 96.0329 20.3249 96.4795 20.1426C96.9307 19.9557 97.4388 19.8623 98.0039 19.8623ZM95.8301 27.4707C95.8301 27.9811 96.0101 28.4027 96.3701 28.7354C96.7301 29.0635 97.2747 29.2275 98.0039 29.2275C98.6966 29.2275 99.2321 29.0635 99.6104 28.7354C99.9886 28.4027 100.178 27.9675 100.178 27.4297C100.178 27.097 100.091 26.8053 99.918 26.5547C99.7448 26.2995 99.4987 26.0716 99.1797 25.8711C98.8607 25.6706 98.4847 25.4883 98.0518 25.3242L97.8057 25.2354C97.3864 25.4085 97.0286 25.6022 96.7324 25.8164C96.4408 26.026 96.2174 26.2653 96.0625 26.5342C95.9076 26.8031 95.8301 27.1152 95.8301 27.4707ZM97.9902 20.792C97.4525 20.792 97.0127 20.9219 96.6709 21.1816C96.3291 21.4369 96.1582 21.806 96.1582 22.2891C96.1582 22.6354 96.2402 22.9294 96.4043 23.1709C96.5729 23.4079 96.8008 23.613 97.0879 23.7861C97.375 23.9548 97.6963 24.112 98.0518 24.2578C98.3981 24.112 98.7057 23.9525 98.9746 23.7793C99.2435 23.6016 99.4554 23.3919 99.6104 23.1504C99.7653 22.9089 99.8428 22.6195 99.8428 22.2822C99.8428 21.7992 99.6719 21.43 99.3301 21.1748C98.9928 20.9196 98.5462 20.792 97.9902 20.792Z" fill="white"/>
<mask id="path-2-inside-1_137_1828" fill="white">
<path d="M500 0H501V48H500V0Z"/>
</mask>
<path d="M501.5 48V47H500.5V48H501.5ZM501.5 45V43H500.5V45H501.5ZM501.5 41V39H500.5V41H501.5ZM501.5 37V35H500.5V37H501.5ZM501.5 33V31H500.5V33H501.5ZM501.5 29V27H500.5V29H501.5ZM501.5 25V23H500.5V25H501.5ZM501.5 21V19H500.5V21H501.5ZM501.5 17V15H500.5V17H501.5ZM501.5 13V11H500.5V13H501.5ZM501.5 9V7H500.5V9H501.5ZM501.5 5V3H500.5V5H501.5ZM501.5 0.999999V0H500.5V0.999999H501.5ZM502 48V47H500V48H502ZM502 45V43H500V45H502ZM502 41V39H500V41H502ZM502 37V35H500V37H502ZM502 33V31H500V33H502ZM502 29V27H500V29H502ZM502 25V23H500V25H502ZM502 21V19H500V21H502ZM502 17V15H500V17H502ZM502 13V11H500V13H502ZM502 9V7H500V9H502ZM502 5V3H500V5H502ZM502 0.999999V0H500V0.999999H502Z" fill="white" fill-opacity="0.5" mask="url(#path-2-inside-1_137_1828)"/>
<mask id="path-4-inside-2_137_1828" fill="white">
<path d="M0 0H1V48H0V0Z"/>
</mask>
<path d="M1.5 48V47H0.5V48H1.5ZM1.5 45V43H0.5V45H1.5ZM1.5 41V39H0.5V41H1.5ZM1.5 37V35H0.5V37H1.5ZM1.5 33V31H0.5V33H1.5ZM1.5 29V27H0.5V29H1.5ZM1.5 25V23H0.5V25H1.5ZM1.5 21V19H0.5V21H1.5ZM1.5 17V15H0.5V17H1.5ZM1.5 13V11H0.5V13H1.5ZM1.5 9V7H0.5V9H1.5ZM1.5 5V3H0.5V5H1.5ZM1.5 0.999999V0H0.5V0.999999H1.5ZM2 48V47H0V48H2ZM2 45V43H0V45H2ZM2 41V39H0V41H2ZM2 37V35H0V37H2ZM2 33V31H0V33H2ZM2 29V27H0V29H2ZM2 25V23H0V25H2ZM2 21V19H0V21H2ZM2 17V15H0V17H2ZM2 13V11H0V13H2ZM2 9V7H0V9H2ZM2 5V3H0V5H2ZM2 0.999999V0H0V0.999999H2Z" fill="white" fill-opacity="0.5" mask="url(#path-4-inside-2_137_1828)"/>
<mask id="path-6-inside-3_137_1828" fill="white">
<path d="M125 0H126V48H125V0Z"/>
</mask>
<path d="M126.5 48V47H125.5V48H126.5ZM126.5 45V43H125.5V45H126.5ZM126.5 41V39H125.5V41H126.5ZM126.5 37V35H125.5V37H126.5ZM126.5 33V31H125.5V33H126.5ZM126.5 29V27H125.5V29H126.5ZM126.5 25V23H125.5V25H126.5ZM126.5 21V19H125.5V21H126.5ZM126.5 17V15H125.5V17H126.5ZM126.5 13V11H125.5V13H126.5ZM126.5 9V7H125.5V9H126.5ZM126.5 5V3H125.5V5H126.5ZM126.5 0.999999V0H125.5V0.999999H126.5ZM127 48V47H125V48H127ZM127 45V43H125V45H127ZM127 41V39H125V41H127ZM127 37V35H125V37H127ZM127 33V31H125V33H127ZM127 29V27H125V29H127ZM127 25V23H125V25H127ZM127 21V19H125V21H127ZM127 17V15H125V17H127ZM127 13V11H125V13H127ZM127 9V7H125V9H127ZM127 5V3H125V5H127ZM127 0.999999V0H125V0.999999H127Z" fill="white" fill-opacity="0.5" mask="url(#path-6-inside-3_137_1828)"/>
<mask id="path-8-inside-4_137_1828" fill="white">
<path d="M250 0H251V48H250V0Z"/>
</mask>
<path d="M251.5 48V47H250.5V48H251.5ZM251.5 45V43H250.5V45H251.5ZM251.5 41V39H250.5V41H251.5ZM251.5 37V35H250.5V37H251.5ZM251.5 33V31H250.5V33H251.5ZM251.5 29V27H250.5V29H251.5ZM251.5 25V23H250.5V25H251.5ZM251.5 21V19H250.5V21H251.5ZM251.5 17V15H250.5V17H251.5ZM251.5 13V11H250.5V13H251.5ZM251.5 9V7H250.5V9H251.5ZM251.5 5V3H250.5V5H251.5ZM251.5 0.999999V0H250.5V0.999999H251.5ZM252 48V47H250V48H252ZM252 45V43H250V45H252ZM252 41V39H250V41H252ZM252 37V35H250V37H252ZM252 33V31H250V33H252ZM252 29V27H250V29H252ZM252 25V23H250V25H252ZM252 21V19H250V21H252ZM252 17V15H250V17H252ZM252 13V11H250V13H252ZM252 9V7H250V9H252ZM252 5V3H250V5H252ZM252 0.999999V0H250V0.999999H252Z" fill="white" fill-opacity="0.5" mask="url(#path-8-inside-4_137_1828)"/>
<mask id="path-10-inside-5_137_1828" fill="white">
<path d="M375 0H376V48H375V0Z"/>
</mask>
<path d="M376.5 48V47H375.5V48H376.5ZM376.5 45V43H375.5V45H376.5ZM376.5 41V39H375.5V41H376.5ZM376.5 37V35H375.5V37H376.5ZM376.5 33V31H375.5V33H376.5ZM376.5 29V27H375.5V29H376.5ZM376.5 25V23H375.5V25H376.5ZM376.5 21V19H375.5V21H376.5ZM376.5 17V15H375.5V17H376.5ZM376.5 13V11H375.5V13H376.5ZM376.5 9V7H375.5V9H376.5ZM376.5 5V3H375.5V5H376.5ZM376.5 0.999999V0H375.5V0.999999H376.5ZM377 48V47H375V48H377ZM377 45V43H375V45H377ZM377 41V39H375V41H377ZM377 37V35H375V37H377ZM377 33V31H375V33H377ZM377 29V27H375V29H377ZM377 25V23H375V25H377ZM377 21V19H375V21H377ZM377 17V15H375V17H377ZM377 13V11H375V13H377ZM377 9V7H375V9H377ZM377 5V3H375V5H377ZM377 0.999999V0H375V0.999999H377Z" fill="white" fill-opacity="0.5" mask="url(#path-10-inside-5_137_1828)"/>
</svg>
