<svg width="264" height="48" viewBox="0 0 264 48" fill="none" xmlns="http://www.w3.org/2000/svg">
<mask id="mask0_106_578" style="mask-type:luminance" maskUnits="userSpaceOnUse" x="0" y="20" width="3" height="8">
<path d="M0 20.9089H2.9662V27.0505H0V20.9089Z" fill="white"/>
</mask>
<g mask="url(#mask0_106_578)">
<path d="M1.41473 21.0688C0.633264 21.0688 -6.10352e-05 21.7022 -6.10352e-05 22.4836V25.5109C-6.10352e-05 26.2924 0.633264 26.9255 1.41473 26.9255C2.1962 26.9255 2.82953 26.2924 2.82953 25.5109V22.4836C2.82953 21.7022 2.1962 21.0688 1.41473 21.0688Z" fill="#58C8B2"/>
</g>
<path d="M6.22535 17.0392C5.4437 17.0392 4.81055 17.6723 4.81055 18.454V29.5405C4.81055 30.3219 5.4437 30.9551 6.22535 30.9551C7.00682 30.9551 7.63996 30.3227 7.63996 29.5412V18.454C7.63996 17.6723 7.00682 17.0392 6.22535 17.0392Z" fill="#58C8B2"/>
<path d="M11.0348 9.80798C10.2534 9.80798 9.62024 10.4411 9.62024 11.2226V36.7718C9.62024 37.5534 10.2534 38.1866 11.0348 38.1866C11.8165 38.1866 12.4496 37.5534 12.4496 36.7718V11.2226C12.4496 10.4411 11.8165 9.80798 11.0348 9.80798Z" fill="#58C8B2"/>
<path d="M15.8454 15.9087C15.0639 15.9087 14.4308 16.5418 14.4308 17.3233V30.6708C14.4308 31.4523 15.0639 32.0856 15.8454 32.0856C16.6269 32.0856 17.2602 31.4523 17.2602 30.6708V17.3233C17.2602 16.5418 16.6269 15.9087 15.8454 15.9087Z" fill="#58C8B2"/>
<mask id="mask1_106_578" style="mask-type:luminance" maskUnits="userSpaceOnUse" x="19" y="0" width="4" height="48">
<path d="M19.1576 0H22.1353V48H19.1576V0Z" fill="white"/>
</mask>
<g mask="url(#mask1_106_578)">
<path d="M20.6552 0.0212402C19.8738 0.0212402 19.2404 0.654381 19.2404 1.43585V46.5592C19.2404 47.3401 19.8738 47.9732 20.6552 47.9732C21.4367 47.9732 22.0699 47.3401 22.0699 46.5592V1.43585C22.0699 0.654381 21.4367 0.0212402 20.6552 0.0212402Z" fill="#58C8B2"/>
</g>
<path d="M25.4657 6.34814C24.684 6.34814 24.0509 6.98129 24.0509 7.76276V40.2322C24.0509 41.0129 24.684 41.6462 25.4657 41.6462C26.2472 41.6462 26.8803 41.0129 26.8803 40.2322V7.76276C26.8803 6.98129 26.2472 6.34814 25.4657 6.34814Z" fill="#58C8B2"/>
<path d="M30.2754 16.9919C29.494 16.9919 28.8608 17.6251 28.8608 18.4067V29.5885C28.8608 30.37 29.494 31.0031 30.2754 31.0031C31.0571 31.0031 31.6902 30.37 31.6902 29.5885V18.4067C31.6902 17.6251 31.0571 16.9919 30.2754 16.9919Z" fill="#58C8B2"/>
<path d="M35.0859 4.6084C34.3045 4.6084 33.6711 5.24154 33.6711 6.02319V41.9712C33.6711 42.7526 34.3045 43.3858 35.0859 43.3858C35.8674 43.3858 36.5007 42.7526 36.5007 41.9712V6.02319C36.5007 5.24228 35.8674 4.6084 35.0859 4.6084Z" fill="#58C8B2"/>
<path d="M39.8958 10.1459C39.1141 10.1459 38.481 10.779 38.481 11.5607V36.4337C38.481 37.2152 39.1141 37.8485 39.8958 37.8485C40.6772 37.8485 41.3104 37.2152 41.3104 36.4337V11.5607C41.3104 10.779 40.6772 10.1459 39.8958 10.1459Z" fill="#58C8B2"/>
<path d="M44.7061 18.5273C43.9246 18.5273 43.2915 19.1605 43.2915 19.9421V28.0524C43.2915 28.8338 43.9246 29.467 44.7061 29.467C45.487 29.467 46.1209 28.8338 46.1209 28.0524V19.9421C46.1209 19.1605 45.487 18.5273 44.7061 18.5273Z" fill="#58C8B2"/>
<mask id="mask2_106_578" style="mask-type:luminance" maskUnits="userSpaceOnUse" x="48" y="20" width="3" height="8">
<path d="M48.0045 20.9089H50.9307V27.0505H48.0045V20.9089Z" fill="white"/>
</mask>
<g mask="url(#mask2_106_578)">
<path d="M49.5159 21.0688C48.7344 21.0688 48.1013 21.7022 48.1013 22.4836V25.5109C48.1013 26.2924 48.7344 26.9255 49.5159 26.9255C50.2973 26.9255 50.9307 26.2924 50.9307 25.5109V22.4836C50.9307 21.7022 50.2973 21.0688 49.5159 21.0688Z" fill="#58C8B2"/>
</g>
<path d="M67.4771 16.8301C68.1991 16.8301 68.8627 16.9798 69.4665 17.2793C70.0718 17.5775 70.5514 17.9974 70.9054 18.5405C71.2606 19.0821 71.4383 19.6861 71.4383 20.3523C71.4383 22.1172 70.6389 23.2287 69.0402 23.6867V23.7705C70.8603 24.1865 71.7707 25.3818 71.7707 27.356C71.7707 28.1059 71.5861 28.7688 71.2176 29.3455C70.8502 29.9227 70.3471 30.3706 69.7077 30.6904C69.0681 31.0102 68.3659 31.17 67.6015 31.17H57.9307V16.8301H67.4771ZM62.5364 22.4154H65.7059C66.0104 22.4154 66.2629 22.3082 66.4646 22.0931C66.6676 21.8767 66.7691 21.6097 66.7691 21.2912V21.0805C66.7691 20.776 66.6637 20.5165 66.4544 20.3015C66.2464 20.0852 65.9964 19.9767 65.7059 19.9767H62.5364V22.4154ZM62.5364 27.8356H66.0383C66.3441 27.8356 66.5978 27.7284 66.7995 27.5134C67.0007 27.2969 67.1016 27.0286 67.1016 26.7089V26.5008C67.1016 26.181 67.0007 25.914 66.7995 25.699C66.5978 25.4845 66.3441 25.3766 66.0383 25.3766H62.5364V27.8356Z" fill="white"/>
<path d="M83.8561 31.17L83.2521 29.1475H78.2302L77.6264 31.17H72.9141L78.1466 16.8301H83.5034L88.7359 31.17H83.8561ZM79.1896 25.9374H82.293L80.7933 20.8319H80.7095L79.1896 25.9374Z" fill="white"/>
<path d="M90.5669 16.8301H95.1727V27.5006H102.532V31.17H90.5669V16.8301Z" fill="white"/>
<path d="M110.596 16.5789C112.429 16.5789 113.937 16.9513 115.118 17.6954C116.298 18.4384 116.903 19.5397 116.932 20.9994V21.248H112.616V21.1644C112.616 20.7481 112.462 20.4017 112.157 20.124C111.852 19.8448 111.386 19.7052 110.761 19.7052C110.15 19.7052 109.681 19.7959 109.355 19.9767C109.028 20.1581 108.865 20.3803 108.865 20.6442C108.865 21.0197 109.087 21.2982 109.533 21.4789C109.977 21.6586 110.693 21.8457 111.68 22.0397C112.833 22.277 113.781 22.5239 114.524 22.7808C115.266 23.0384 115.916 23.4583 116.473 24.042C117.029 24.6255 117.314 25.4173 117.328 26.4172C117.328 28.1122 116.755 29.3702 115.608 30.1905C114.461 31.0115 112.929 31.4212 111.012 31.4212C108.775 31.4212 107.034 31.0457 105.79 30.2946C104.546 29.5435 103.925 28.2163 103.925 26.3131H108.282C108.282 27.0356 108.468 27.5185 108.842 27.7621C109.218 28.0057 109.802 28.1275 110.596 28.1275C111.18 28.1275 111.662 28.0653 112.042 27.9397C112.424 27.8147 112.616 27.5578 112.616 27.1683C112.616 26.8219 112.403 26.5611 111.979 26.3867C111.556 26.2129 110.866 26.0282 109.908 25.8335C108.741 25.5836 107.775 25.3228 107.01 25.0519C106.245 24.7816 105.578 24.3337 105.008 23.7096C104.44 23.084 104.156 22.2353 104.156 21.1644C104.156 19.5949 104.763 18.4384 105.977 17.6954C107.194 16.9513 108.733 16.5789 110.596 16.5789Z" fill="white"/>
<path d="M133.999 25.3969C133.999 27.356 133.381 28.85 132.144 29.8784C130.907 30.9074 129.15 31.4212 126.871 31.4212C124.592 31.4212 122.831 30.9074 121.588 29.8784C120.344 28.85 119.723 27.356 119.723 25.3969V16.8301H124.328V25.3336C124.328 26.1393 124.543 26.7819 124.973 27.2622C125.404 27.7411 126.03 27.9803 126.851 27.9803C127.671 27.9803 128.3 27.7379 128.736 27.2519C129.174 26.7647 129.394 26.1253 129.394 25.3336V16.8301H133.999V25.3969Z" fill="white"/>
<path d="M145.442 20.4969V31.17H140.833V20.4969H136.124V16.8301H150.131V20.4969H145.442Z" fill="white"/>
<path d="M161.945 31.17L161.341 29.1475H156.319L155.716 31.17H151.003L156.236 16.8301H161.593L166.825 31.17H161.945ZM157.279 25.9374H160.382L158.883 20.8319H158.799L157.279 25.9374Z" fill="white"/>
<path d="M168.656 16.8301H173.262V27.5006H180.621V31.17H168.656V16.8301Z" fill="white"/>
<path d="M192.375 16.8301H198.084L192.936 22.7275L198.189 31.17H192.748L189.769 25.9171L187.267 27.96V31.17H182.661V16.8301H187.267V22.9584L192.375 16.8301Z" fill="white"/>
<path d="M209.732 31.17L209.128 29.1475H204.106L203.503 31.17H198.791L204.024 16.8301H209.38L214.612 31.17H209.732ZM205.066 25.9374H208.17L206.669 20.8319H206.586L205.066 25.9374Z" fill="white"/>
<path d="M216.171 31.17V27.021H220.591V31.17H216.171Z" fill="white"/>
<path d="M223.488 16.8301H228.094V27.5006H235.452V31.17H223.488V16.8301Z" fill="white"/>
<path d="M241.39 31.17L236.305 16.8301H241.222L244.1 26.4172H244.183L247.079 16.8301H251.792L246.726 31.17H241.39Z" fill="white"/>
<mask id="mask3_106_578" style="mask-type:luminance" maskUnits="userSpaceOnUse" x="254" y="27" width="10" height="4">
<path d="M254.398 27.6377H263.167V30.1227H254.398V27.6377Z" fill="white"/>
</mask>
<g mask="url(#mask3_106_578)">
<path d="M254.398 27.7842V30.1188H263.167V27.7842H254.398Z" fill="#870E1E"/>
</g>
<mask id="mask4_106_578" style="mask-type:luminance" maskUnits="userSpaceOnUse" x="254" y="26" width="10" height="2">
<path d="M254.398 26.5009H263.167V27.8001H254.398V26.5009Z" fill="white"/>
</mask>
<g mask="url(#mask4_106_578)">
<path d="M254.398 26.6163H263.167V27.7835H254.398V26.6163Z" fill="white"/>
</g>
<mask id="mask5_106_578" style="mask-type:luminance" maskUnits="userSpaceOnUse" x="254" y="24" width="10" height="3">
<path d="M254.398 24.2778H263.167V26.6632H254.398V24.2778Z" fill="white"/>
</mask>
<g mask="url(#mask5_106_578)">
<path d="M254.398 24.2817V26.6163H263.167V24.2817H254.398Z" fill="#870E1E"/>
</g>
</svg>
