<svg width="264" height="48" viewBox="0 0 264 48" fill="none" xmlns="http://www.w3.org/2000/svg">
<mask id="mask0_106_212" style="mask-type:luminance" maskUnits="userSpaceOnUse" x="0" y="20" width="3" height="8">
<path d="M0 20.9089H2.9662V27.0505H0V20.9089Z" fill="white"/>
</mask>
<g mask="url(#mask0_106_212)">
<path d="M1.41473 21.0688C0.633264 21.0688 -6.10352e-05 21.7022 -6.10352e-05 22.4836V25.5109C-6.10352e-05 26.2924 0.633264 26.9255 1.41473 26.9255C2.1962 26.9255 2.82953 26.2924 2.82953 25.5109V22.4836C2.82953 21.7022 2.1962 21.0688 1.41473 21.0688Z" fill="#58C8B2"/>
</g>
<path d="M6.22535 17.0392C5.4437 17.0392 4.81055 17.6723 4.81055 18.454V29.5405C4.81055 30.3219 5.4437 30.9551 6.22535 30.9551C7.00682 30.9551 7.63996 30.3227 7.63996 29.5412V18.454C7.63996 17.6723 7.00682 17.0392 6.22535 17.0392Z" fill="#58C8B2"/>
<path d="M11.0348 9.80798C10.2534 9.80798 9.62024 10.4411 9.62024 11.2226V36.7718C9.62024 37.5534 10.2534 38.1866 11.0348 38.1866C11.8165 38.1866 12.4496 37.5534 12.4496 36.7718V11.2226C12.4496 10.4411 11.8165 9.80798 11.0348 9.80798Z" fill="#58C8B2"/>
<path d="M15.8454 15.9087C15.0639 15.9087 14.4308 16.5418 14.4308 17.3233V30.6708C14.4308 31.4523 15.0639 32.0856 15.8454 32.0856C16.6269 32.0856 17.2602 31.4523 17.2602 30.6708V17.3233C17.2602 16.5418 16.6269 15.9087 15.8454 15.9087Z" fill="#58C8B2"/>
<mask id="mask1_106_212" style="mask-type:luminance" maskUnits="userSpaceOnUse" x="19" y="0" width="4" height="48">
<path d="M19.1576 0H22.1353V48H19.1576V0Z" fill="white"/>
</mask>
<g mask="url(#mask1_106_212)">
<path d="M20.6552 0.0212402C19.8738 0.0212402 19.2404 0.654381 19.2404 1.43585V46.5592C19.2404 47.3401 19.8738 47.9732 20.6552 47.9732C21.4367 47.9732 22.0699 47.3401 22.0699 46.5592V1.43585C22.0699 0.654381 21.4367 0.0212402 20.6552 0.0212402Z" fill="#58C8B2"/>
</g>
<path d="M25.4657 6.34814C24.684 6.34814 24.0509 6.98129 24.0509 7.76276V40.2322C24.0509 41.0129 24.684 41.6462 25.4657 41.6462C26.2472 41.6462 26.8803 41.0129 26.8803 40.2322V7.76276C26.8803 6.98129 26.2472 6.34814 25.4657 6.34814Z" fill="#58C8B2"/>
<path d="M30.2754 16.9919C29.494 16.9919 28.8608 17.6251 28.8608 18.4067V29.5885C28.8608 30.37 29.494 31.0031 30.2754 31.0031C31.0571 31.0031 31.6902 30.37 31.6902 29.5885V18.4067C31.6902 17.6251 31.0571 16.9919 30.2754 16.9919Z" fill="#58C8B2"/>
<path d="M35.0859 4.6084C34.3045 4.6084 33.6711 5.24154 33.6711 6.02319V41.9712C33.6711 42.7526 34.3045 43.3858 35.0859 43.3858C35.8674 43.3858 36.5007 42.7526 36.5007 41.9712V6.02319C36.5007 5.24228 35.8674 4.6084 35.0859 4.6084Z" fill="#58C8B2"/>
<path d="M39.8958 10.1459C39.1141 10.1459 38.481 10.779 38.481 11.5607V36.4337C38.481 37.2152 39.1141 37.8485 39.8958 37.8485C40.6772 37.8485 41.3104 37.2152 41.3104 36.4337V11.5607C41.3104 10.779 40.6772 10.1459 39.8958 10.1459Z" fill="#58C8B2"/>
<path d="M44.7061 18.5273C43.9246 18.5273 43.2915 19.1605 43.2915 19.9421V28.0524C43.2915 28.8338 43.9246 29.467 44.7061 29.467C45.487 29.467 46.1209 28.8338 46.1209 28.0524V19.9421C46.1209 19.1605 45.487 18.5273 44.7061 18.5273Z" fill="#58C8B2"/>
<mask id="mask2_106_212" style="mask-type:luminance" maskUnits="userSpaceOnUse" x="48" y="20" width="3" height="8">
<path d="M48.0045 20.9089H50.9307V27.0505H48.0045V20.9089Z" fill="white"/>
</mask>
<g mask="url(#mask2_106_212)">
<path d="M49.5159 21.0688C48.7344 21.0688 48.1013 21.7022 48.1013 22.4836V25.5109C48.1013 26.2924 48.7344 26.9255 49.5159 26.9255C50.2973 26.9255 50.9307 26.2924 50.9307 25.5109V22.4836C50.9307 21.7022 50.2973 21.0688 49.5159 21.0688Z" fill="#58C8B2"/>
</g>
<path d="M67.7873 17.4088C68.5094 17.4088 69.1728 17.5585 69.7768 17.858C70.382 18.1562 70.8616 18.5762 71.2157 19.1191C71.5709 19.6609 71.7485 20.2649 71.7485 20.9311C71.7485 22.6959 70.9492 23.8074 69.3505 24.2654V24.3492C71.1705 24.7653 72.081 25.9604 72.081 27.9348C72.081 28.6846 71.8963 29.3475 71.5277 29.9242C71.1605 30.5014 70.6573 30.9493 70.0179 31.2691C69.3784 31.5889 68.6761 31.7487 67.9117 31.7487H58.241V17.4088H67.7873ZM62.8466 22.9941H66.0161C66.3206 22.9941 66.5732 22.8869 66.7749 22.6717C66.9779 22.4554 67.0794 22.1884 67.0794 21.8699V21.6593C67.0794 21.3548 66.974 21.0952 66.7646 20.8802C66.5566 20.6639 66.3067 20.5554 66.0161 20.5554H62.8466V22.9941ZM62.8466 28.4144H66.3486C66.6544 28.4144 66.908 28.3072 67.1097 28.092C67.311 27.8757 67.4118 27.6074 67.4118 27.2876V27.0796C67.4118 26.7598 67.311 26.4928 67.1097 26.2778C66.908 26.0632 66.6544 25.9554 66.3486 25.9554H62.8466V28.4144Z" fill="#58C8B2" fill-opacity="0.302"/>
<path d="M84.1663 31.7487L83.5623 29.7263H78.5404L77.9366 31.7487H73.2242L78.4568 17.4088H83.8135L89.0461 31.7487H84.1663ZM79.4997 26.5162H82.6031L81.1035 21.4106H81.0197L79.4997 26.5162Z" fill="#58C8B2" fill-opacity="0.302"/>
<path d="M90.8771 17.4088H95.4829V28.0793H102.842V31.7487H90.8771V17.4088Z" fill="#58C8B2" fill-opacity="0.302"/>
<path d="M110.906 17.1576C112.739 17.1576 114.247 17.53 115.428 18.2741C116.609 19.0171 117.213 20.1184 117.242 21.5781V21.8267H112.926V21.7431C112.926 21.3269 112.772 20.9804 112.467 20.7026C112.162 20.4236 111.697 20.2839 111.071 20.2839C110.46 20.2839 109.991 20.3747 109.665 20.5554C109.339 20.7368 109.175 20.959 109.175 21.2229C109.175 21.5984 109.398 21.8769 109.843 22.0577C110.287 22.2373 111.003 22.4244 111.99 22.6185C113.143 22.8557 114.091 23.1026 114.834 23.3595C115.577 23.6171 116.226 24.0371 116.783 24.6206C117.339 25.2043 117.624 25.996 117.638 26.9958C117.638 28.691 117.065 29.9489 115.918 30.7693C114.771 31.59 113.239 32 111.322 32C109.085 32 107.345 31.6243 106.1 30.8732C104.856 30.1221 104.235 28.7951 104.235 26.8918H108.592C108.592 27.6144 108.778 28.0972 109.153 28.3408C109.528 28.5844 110.112 28.7062 110.906 28.7062C111.49 28.7062 111.972 28.644 112.352 28.5183C112.734 28.3934 112.926 28.1365 112.926 27.7469C112.926 27.4006 112.713 27.1398 112.289 26.9654C111.866 26.7916 111.176 26.607 110.218 26.4123C109.051 26.1623 108.085 25.9015 107.321 25.6306C106.555 25.3604 105.888 24.9124 105.318 24.2883C104.75 23.6627 104.466 22.8138 104.466 21.7431C104.466 20.1736 105.073 19.0171 106.288 18.2741C107.504 17.53 109.043 17.1576 110.906 17.1576Z" fill="#58C8B2" fill-opacity="0.302"/>
<path d="M134.309 25.9757C134.309 27.9348 133.691 29.4287 132.454 30.4571C131.217 31.4861 129.46 31.9999 127.181 31.9999C124.903 31.9999 123.141 31.4861 121.898 30.4571C120.655 29.4287 120.033 27.9348 120.033 25.9757V17.4088H124.639V25.9123C124.639 26.7179 124.853 27.3607 125.283 27.8409C125.715 28.3198 126.34 28.5589 127.161 28.5589C127.981 28.5589 128.61 28.3166 129.047 27.8307C129.484 27.3435 129.704 26.7041 129.704 25.9123V17.4088H134.309V25.9757Z" fill="#58C8B2" fill-opacity="0.302"/>
<path d="M145.752 21.0756V31.7487H141.144V21.0756H136.434V17.4088H150.441V21.0756H145.752Z" fill="#58C8B2" fill-opacity="0.302"/>
<path d="M162.256 31.7487L161.652 29.7263H156.63L156.026 31.7487H151.314L156.546 17.4088H161.903L167.135 31.7487H162.256ZM157.589 26.5162H160.692L159.193 21.4106H159.109L157.589 26.5162Z" fill="#58C8B2" fill-opacity="0.302"/>
<path d="M168.966 17.4088H173.572V28.0793H180.931V31.7487H168.966V17.4088Z" fill="#58C8B2" fill-opacity="0.302"/>
<path d="M192.685 17.4088H198.395L193.246 23.3062L198.499 31.7487H193.058L190.079 26.4959L187.577 28.5386V31.7487H182.971V17.4088H187.577V23.5372L192.685 17.4088Z" fill="#58C8B2" fill-opacity="0.302"/>
<path d="M210.042 31.7487L209.438 29.7263H204.417L203.813 31.7487H199.101L204.334 17.4088H209.69L214.923 31.7487H210.042ZM205.376 26.5162H208.48L206.979 21.4106H206.897L205.376 26.5162Z" fill="#58C8B2" fill-opacity="0.302"/>
<path d="M216.482 31.7487V27.5997H220.901V31.7487H216.482Z" fill="#58C8B2" fill-opacity="0.302"/>
<path d="M223.798 17.4088H228.404V28.0793H235.762V31.7487H223.798V17.4088Z" fill="#58C8B2" fill-opacity="0.302"/>
<path d="M241.7 31.7487L236.615 17.4088H241.533L244.41 26.9958H244.493L247.389 17.4088H252.102L247.037 31.7487H241.7Z" fill="#58C8B2" fill-opacity="0.302"/>
<path d="M67.6322 16.8301C68.3542 16.8301 69.0176 16.9798 69.6216 17.2793C70.2269 17.5775 70.7065 17.9974 71.0605 18.5404C71.4157 19.0822 71.5934 19.6861 71.5934 20.3523C71.5934 22.1172 70.794 23.2287 69.1953 23.6867V23.7705C71.0154 24.1865 71.9258 25.3817 71.9258 27.356C71.9258 28.1059 71.7412 28.7688 71.3725 29.3455C71.0053 29.9227 70.5022 30.3706 69.8628 30.6904C69.2232 31.0102 68.521 31.17 67.7566 31.17H58.0858V16.8301H67.6322ZM62.6915 22.4154H65.861C66.1655 22.4154 66.418 22.3082 66.6197 22.093C66.8227 21.8767 66.9242 21.6097 66.9242 21.2912V21.0805C66.9242 20.776 66.8188 20.5165 66.6095 20.3015C66.4014 20.0852 66.1515 19.9767 65.861 19.9767H62.6915V22.4154ZM62.6915 27.8356H66.1934C66.4992 27.8356 66.7529 27.7284 66.9546 27.5133C67.1558 27.2969 67.2567 27.0286 67.2567 26.7089V26.5008C67.2567 26.181 67.1558 25.9141 66.9546 25.699C66.7529 25.4845 66.4992 25.3766 66.1934 25.3766H62.6915V27.8356Z" fill="#58C8B2" fill-opacity="0.502"/>
<path d="M84.0112 31.17L83.4072 29.1475H78.3853L77.7815 31.17H73.0692L78.3017 16.8301H83.6585L88.891 31.17H84.0112ZM79.3446 25.9374H82.4481L80.9484 20.8319H80.8646L79.3446 25.9374Z" fill="#58C8B2" fill-opacity="0.502"/>
<path d="M90.722 16.8301H95.3278V27.5006H102.687V31.17H90.722V16.8301Z" fill="#58C8B2" fill-opacity="0.502"/>
<path d="M110.751 16.5789C112.584 16.5789 114.092 16.9513 115.273 17.6954C116.454 18.4384 117.058 19.5397 117.087 20.9994V21.248H112.771V21.1644C112.771 20.7481 112.617 20.4017 112.312 20.1238C112.007 19.8448 111.541 19.7052 110.916 19.7052C110.305 19.7052 109.836 19.7959 109.51 19.9767C109.184 20.1581 109.02 20.3803 109.02 20.6442C109.02 21.0197 109.242 21.2982 109.688 21.4789C110.132 21.6586 110.848 21.8457 111.835 22.0397C112.988 22.277 113.936 22.5239 114.679 22.7808C115.422 23.0384 116.071 23.4583 116.628 24.0419C117.184 24.6255 117.469 25.4173 117.483 26.417C117.483 28.1122 116.91 29.3702 115.763 30.1905C114.616 31.0115 113.084 31.4212 111.167 31.4212C108.93 31.4212 107.19 31.0456 105.945 30.2945C104.701 29.5433 104.08 28.2163 104.08 26.3131H108.437C108.437 27.0356 108.623 27.5185 108.998 27.7621C109.373 28.0057 109.957 28.1275 110.751 28.1275C111.335 28.1275 111.817 28.0653 112.197 27.9396C112.579 27.8147 112.771 27.5578 112.771 27.1682C112.771 26.8219 112.558 26.5611 112.134 26.3867C111.711 26.2129 111.021 26.0282 110.063 25.8335C108.896 25.5836 107.93 25.3228 107.165 25.0519C106.4 24.7816 105.733 24.3337 105.163 23.7096C104.595 23.084 104.311 22.2351 104.311 21.1644C104.311 19.5949 104.918 18.4384 106.133 17.6954C107.349 16.9513 108.888 16.5789 110.751 16.5789Z" fill="#58C8B2" fill-opacity="0.502"/>
<path d="M134.154 25.3969C134.154 27.356 133.536 28.85 132.299 29.8784C131.062 30.9074 129.305 31.4212 127.026 31.4212C124.747 31.4212 122.986 30.9074 121.743 29.8784C120.5 28.85 119.878 27.356 119.878 25.3969V16.8301H124.484V25.3336C124.484 26.1393 124.698 26.7819 125.128 27.2622C125.56 27.7411 126.185 27.9802 127.006 27.9802C127.826 27.9802 128.455 27.7379 128.891 27.2519C129.329 26.7647 129.549 26.1253 129.549 25.3336V16.8301H134.154V25.3969Z" fill="#58C8B2" fill-opacity="0.502"/>
<path d="M145.597 20.4969V31.17H140.989V20.4969H136.279V16.8301H150.286V20.4969H145.597Z" fill="#58C8B2" fill-opacity="0.502"/>
<path d="M162.1 31.17L161.497 29.1475H156.475L155.871 31.17H151.158L156.391 16.8301H161.748L166.98 31.17H162.1ZM157.434 25.9374H160.537L159.038 20.8319H158.954L157.434 25.9374Z" fill="#58C8B2" fill-opacity="0.502"/>
<path d="M168.811 16.8301H173.417V27.5006H180.776V31.17H168.811V16.8301Z" fill="#58C8B2" fill-opacity="0.502"/>
<path d="M192.53 16.8301H198.24L193.091 22.7275L198.344 31.17H192.903L189.924 25.9171L187.422 27.9599V31.17H182.816V16.8301H187.422V22.9584L192.53 16.8301Z" fill="#58C8B2" fill-opacity="0.502"/>
<path d="M209.888 31.17L209.284 29.1475H204.262L203.658 31.17H198.946L204.178 16.8301H209.536L214.767 31.17H209.888ZM205.221 25.9374H208.324L206.825 20.8319H206.741L205.221 25.9374Z" fill="#58C8B2" fill-opacity="0.502"/>
<path d="M216.327 31.17V27.021H220.745V31.17H216.327Z" fill="#58C8B2" fill-opacity="0.502"/>
<path d="M223.642 16.8301H228.248V27.5006H235.606V31.17H223.642V16.8301Z" fill="#58C8B2" fill-opacity="0.502"/>
<path d="M241.546 31.17L236.459 16.8301H241.378L244.255 26.417H244.339L247.235 16.8301H251.946L246.882 31.17H241.546Z" fill="#58C8B2" fill-opacity="0.502"/>
<path d="M67.4771 16.2512C68.1991 16.2512 68.8627 16.401 69.4665 16.7004C70.0718 16.9986 70.5514 17.4186 70.9054 17.9617C71.2606 18.5033 71.4383 19.1073 71.4383 19.7735C71.4383 21.5383 70.6389 22.6498 69.0402 23.1078V23.1916C70.8603 23.6077 71.7707 24.803 71.7707 26.7772C71.7707 27.527 71.5861 28.1899 71.2176 28.7666C70.8502 29.3438 70.3471 29.7917 69.7077 30.1115C69.0681 30.4313 68.3659 30.5911 67.6015 30.5911H57.9307V16.2512H67.4771ZM62.5364 21.8365H65.7059C66.0104 21.8365 66.2629 21.7293 66.4646 21.5143C66.6676 21.2978 66.7691 21.0308 66.7691 20.7123V20.5017C66.7691 20.1972 66.6637 19.9377 66.4544 19.7226C66.2464 19.5063 65.9964 19.3978 65.7059 19.3978H62.5364V21.8365ZM62.5364 27.2568H66.0383C66.3441 27.2568 66.5978 27.1496 66.7995 26.9346C67.0007 26.7181 67.1016 26.4498 67.1016 26.13V25.922C67.1016 25.6022 67.0007 25.3352 66.7995 25.1202C66.5978 24.9056 66.3441 24.7978 66.0383 24.7978H62.5364V27.2568Z" fill="#164460"/>
<path d="M83.8561 30.5911L83.2521 28.5687H78.2302L77.6264 30.5911H72.9141L78.1466 16.2512H83.5034L88.7359 30.5911H83.8561ZM79.1896 25.3586H82.293L80.7933 20.253H80.7095L79.1896 25.3586Z" fill="#164460"/>
<path d="M90.5669 16.2512H95.1727V26.9217H102.532V30.5911H90.5669V16.2512Z" fill="#164460"/>
<path d="M110.596 16C112.429 16 113.937 16.3724 115.118 17.1165C116.298 17.8595 116.903 18.9608 116.932 20.4205V20.6691H112.616V20.5855C112.616 20.1693 112.462 19.8229 112.157 19.5451C111.852 19.266 111.386 19.1263 110.761 19.1263C110.15 19.1263 109.681 19.2171 109.355 19.3978C109.028 19.5792 108.865 19.8014 108.865 20.0653C108.865 20.4408 109.087 20.7193 109.533 20.9001C109.977 21.0797 110.693 21.2668 111.68 21.4609C112.833 21.6981 113.781 21.945 114.524 22.2019C115.266 22.4595 115.916 22.8795 116.473 23.4632C117.029 24.0467 117.314 24.8384 117.328 25.8383C117.328 27.5334 116.755 28.7914 115.608 29.6117C114.461 30.4326 112.929 30.8424 111.012 30.8424C108.775 30.8424 107.034 30.4669 105.79 29.7158C104.546 28.9646 103.925 27.6375 103.925 25.7342H108.282C108.282 26.4568 108.468 26.9396 108.842 27.1832C109.218 27.4268 109.802 27.5486 110.596 27.5486C111.18 27.5486 111.662 27.4864 112.042 27.3609C112.424 27.2358 112.616 26.9789 112.616 26.5895C112.616 26.2431 112.403 25.9822 111.979 25.8078C111.556 25.634 110.866 25.4494 109.908 25.2547C108.741 25.0047 107.775 24.7439 107.01 24.473C106.245 24.2028 105.578 23.7548 105.008 23.1307C104.44 22.5051 104.156 21.6564 104.156 20.5855C104.156 19.016 104.763 17.8595 105.977 17.1165C107.194 16.3724 108.733 16 110.596 16Z" fill="#164460"/>
<path d="M133.999 24.8181C133.999 26.7772 133.381 28.2711 132.144 29.2995C130.907 30.3285 129.15 30.8423 126.871 30.8423C124.592 30.8423 122.831 30.3285 121.588 29.2995C120.344 28.2711 119.723 26.7772 119.723 24.8181V16.2512H124.328V24.7548C124.328 25.5604 124.543 26.2031 124.973 26.6833C125.404 27.1622 126.03 27.4015 126.851 27.4015C127.671 27.4015 128.3 27.159 128.736 26.6731C129.174 26.1859 129.394 25.5465 129.394 24.7548V16.2512H133.999V24.8181Z" fill="#164460"/>
<path d="M145.442 19.918V30.5911H140.833V19.918H136.124V16.2512H150.131V19.918H145.442Z" fill="#164460"/>
<path d="M161.945 30.5911L161.341 28.5687H156.319L155.716 30.5911H151.003L156.236 16.2512H161.593L166.825 30.5911H161.945ZM157.279 25.3586H160.382L158.883 20.253H158.799L157.279 25.3586Z" fill="#164460"/>
<path d="M168.656 16.2512H173.262V26.9217H180.621V30.5911H168.656V16.2512Z" fill="#164460"/>
<path d="M192.375 16.2512H198.084L192.936 22.1486L198.189 30.5911H192.748L189.769 25.3383L187.267 27.3812V30.5911H182.661V16.2512H187.267V22.3796L192.375 16.2512Z" fill="#164460"/>
<path d="M209.732 30.5911L209.128 28.5687H204.106L203.503 30.5911H198.791L204.024 16.2512H209.38L214.612 30.5911H209.732ZM205.066 25.3586H208.17L206.669 20.253H206.586L205.066 25.3586Z" fill="#164460"/>
<path d="M216.171 30.5911V26.4421H220.591V30.5911H216.171Z" fill="#164460"/>
<path d="M223.488 16.2512H228.094V26.9217H235.452V30.5911H223.488V16.2512Z" fill="#164460"/>
<path d="M241.39 30.5911L236.305 16.2512H241.222L244.1 25.8383H244.183L247.079 16.2512H251.792L246.726 30.5911H241.39Z" fill="#164460"/>
<mask id="mask3_106_212" style="mask-type:luminance" maskUnits="userSpaceOnUse" x="254" y="27" width="10" height="3">
<path d="M254.398 27.0588H263.167V29.5438H254.398V27.0588Z" fill="white"/>
</mask>
<g mask="url(#mask3_106_212)">
<path d="M254.398 27.2053V29.5399H263.167V27.2053H254.398Z" fill="#870E1E"/>
</g>
<mask id="mask4_106_212" style="mask-type:luminance" maskUnits="userSpaceOnUse" x="254" y="25" width="10" height="3">
<path d="M254.398 25.922H263.167V27.2212H254.398V25.922Z" fill="white"/>
</mask>
<g mask="url(#mask4_106_212)">
<path d="M254.398 26.0375H263.167V27.2047H254.398V26.0375Z" fill="white"/>
</g>
<mask id="mask5_106_212" style="mask-type:luminance" maskUnits="userSpaceOnUse" x="254" y="23" width="10" height="4">
<path d="M254.398 23.699H263.167V26.0844H254.398V23.699Z" fill="white"/>
</mask>
<g mask="url(#mask5_106_212)">
<path d="M254.398 23.7029V26.0375H263.167V23.7029H254.398Z" fill="#870E1E"/>
</g>
</svg>
