<svg width="72" height="72" viewBox="0 0 72 72" fill="none" xmlns="http://www.w3.org/2000/svg">
<rect width="72" height="72" rx="36" fill="#164460"/>
<path d="M36 39.3333C34.6111 39.3333 33.4306 38.8472 32.4583 37.875C31.4861 36.9028 31 35.7222 31 34.3333V24.3333C31 22.9445 31.4861 21.7639 32.4583 20.7917C33.4306 19.8195 34.6111 19.3333 36 19.3333C37.3889 19.3333 38.5695 19.8195 39.5417 20.7917C40.5139 21.7639 41 22.9445 41 24.3333V34.3333C41 35.7222 40.5139 36.9028 39.5417 37.875C38.5695 38.8472 37.3889 39.3333 36 39.3333ZM36 51C35.5278 51 35.1317 50.84 34.8117 50.52C34.4917 50.2 34.3322 49.8045 34.3333 49.3333V45.8333C31.75 45.5 29.5556 44.4306 27.75 42.625C25.9445 40.8195 24.8472 38.6528 24.4583 36.125C24.375 35.6528 24.5 35.2361 24.8334 34.875C25.1667 34.5139 25.6111 34.3333 26.1667 34.3333C26.5556 34.3333 26.9028 34.4789 27.2083 34.77C27.5139 35.0611 27.7083 35.4156 27.7917 35.8333C28.1528 37.7778 29.0972 39.4028 30.625 40.7083C32.1528 42.0139 33.9445 42.6667 36 42.6667C38.0556 42.6667 39.8472 42.0139 41.375 40.7083C42.9028 39.4028 43.8472 37.7778 44.2083 35.8333C44.2917 35.4167 44.4928 35.0622 44.8117 34.77C45.1306 34.4778 45.485 34.3322 45.875 34.3333C46.4028 34.3333 46.8334 34.5139 47.1667 34.875C47.5 35.2361 47.625 35.6528 47.5417 36.125C47.1528 38.6528 46.0556 40.8195 44.25 42.625C42.4445 44.4306 40.25 45.5 37.6667 45.8333V49.3333C37.6667 49.8056 37.5067 50.2017 37.1867 50.5217C36.8667 50.8417 36.4711 51.0011 36 51Z" fill="white"/>
</svg>
